<svg xmlns="http://www.w3.org/2000/svg" xmlns:xlink="http://www.w3.org/1999/xlink" width="2000" zoomAndPan="magnify" viewBox="0 0 1500 1499.999933" height="2000" preserveAspectRatio="xMidYMid meet" version="1.0"><defs><clipPath id="d17edab317"><path d="M 320 578 L 1195 578 L 1195 1446 L 320 1446 Z M 320 578 " clip-rule="nonzero"/></clipPath><clipPath id="2b51d674b3"><path d="M 378.277344 523.445312 L 1244.792969 632.964844 L 1135.273438 1499.480469 L 268.757812 1389.960938 Z M 378.277344 523.445312 " clip-rule="nonzero"/></clipPath><clipPath id="1645ab79fe"><path d="M 378.277344 523.445312 L 1244.792969 632.964844 L 1135.273438 1499.480469 L 268.757812 1389.960938 Z M 378.277344 523.445312 " clip-rule="nonzero"/></clipPath><clipPath id="15ff64254c"><rect x="0" width="1379" y="0" height="1477"/></clipPath></defs><g transform="matrix(1, 0, 0, 1, 56, 23)"><g clip-path="url(#15ff64254c)"><path fill="#b8433a" d="M 1120.402344 22.828125 C 989.691406 -23.574219 838.414062 4.910156 733.808594 109.519531 C 629.199219 214.128906 600.714844 365.402344 647.121094 496.113281 L 59.027344 1084.207031 C -3.277344 1146.511719 -3.277344 1246.828125 59.027344 1309.132812 C 121.332031 1371.441406 221.648438 1371.441406 283.953125 1309.132812 L 872.046875 721.039062 C 1002.757812 767.445312 1154.03125 738.957031 1258.640625 634.351562 C 1363.25 529.742188 1391.734375 378.46875 1345.332031 247.753906 L 1171.167969 421.917969 C 1108.863281 484.222656 1008.546875 484.222656 946.242188 421.917969 C 883.933594 359.613281 883.9375 259.296875 946.242188 196.988281 Z M 1120.402344 22.828125 " fill-opacity="1" fill-rule="nonzero"/><g clip-path="url(#d17edab317)"><g clip-path="url(#2b51d674b3)"><g clip-path="url(#1645ab79fe)"><path fill="#b8433a" d="M 441.839844 709.128906 C 456.613281 693.777344 472.464844 679.511719 489.257812 666.488281 C 526.503906 637.597656 568.410156 614.714844 613.390625 599.019531 C 620.390625 596.582031 625.550781 605.753906 619.769531 610.371094 C 602.550781 624.160156 586.089844 639.953125 570.589844 657.566406 C 552.417969 678.191406 535.558594 701.3125 520.277344 726.570312 C 518.914062 728.84375 516.335938 730.078125 513.71875 729.703125 L 445.714844 720.25 C 440.375 719.488281 438.113281 712.992188 441.839844 709.128906 Z M 334.175781 933.691406 L 434.566406 947.480469 C 438.09375 947.96875 441.371094 945.542969 441.96875 942.03125 C 453.449219 874.703125 474.453125 812.519531 502.40625 758.414062 L 414.238281 746.148438 C 411.859375 745.824219 409.492188 746.78125 408.039062 748.710938 C 369.511719 799.71875 341.757812 859.773438 328.574219 925.917969 C 327.839844 929.632812 330.429688 933.195312 334.175781 933.691406 Z M 660.5625 780.40625 L 538.601562 763.453125 C 535.855469 763.0625 533.148438 764.4375 531.851562 766.871094 C 504.136719 819.113281 483.265625 879.726562 471.886719 945.722656 C 471.246094 949.386719 473.824219 952.859375 477.5 953.367188 L 622.863281 973.324219 C 626.453125 973.824219 629.769531 971.292969 630.289062 967.703125 C 639.492188 903.0625 651.753906 842.457031 666.019531 788.628906 C 667.050781 784.816406 664.503906 780.949219 660.5625 780.40625 Z M 550.414062 734.804688 L 670.6875 751.523438 C 673.910156 751.976562 676.957031 750.003906 677.921875 746.890625 C 685.4375 722.28125 693.335938 699.5 701.535156 678.851562 C 715.460938 643.757812 730.574219 614.601562 746.277344 592.765625 C 749.882812 587.761719 745.335938 581.042969 739.34375 582.488281 C 686.320312 595.269531 635.964844 628.734375 593.117188 677.367188 C 577.832031 694.679688 563.535156 713.898438 550.414062 734.804688 Z M 729.40625 689.839844 C 722.234375 707.910156 715.285156 727.726562 708.625 749.054688 C 707.410156 752.929688 710 756.976562 714.023438 757.554688 L 861.929688 778.117188 C 866.019531 778.679688 869.648438 775.394531 869.441406 771.273438 C 868.320312 748.257812 866.46875 726.6875 863.957031 706.84375 C 854.222656 630.230469 836.097656 581.308594 811.871094 578.246094 C 787.644531 575.183594 757.898438 618.054688 729.40625 689.839844 Z M 703.726562 786.414062 C 700.4375 785.953125 697.296875 788 696.429688 791.214844 C 681.964844 845.023438 669.480469 906.167969 660.160156 971.742188 C 659.636719 975.355469 662.183594 978.734375 665.796875 979.214844 L 853.207031 1004.949219 C 856.882812 1005.457031 860.253906 1002.824219 860.675781 999.132812 C 868.28125 931.117188 871.457031 866.8125 870.648438 809.625 Z M 896.136719 1010.859375 L 1041.695312 1030.839844 C 1045.414062 1031.355469 1048.839844 1028.660156 1049.179688 1024.917969 C 1055.183594 958.4375 1050.753906 894.695312 1037.664062 837.140625 C 1037.054688 834.464844 1034.84375 832.46875 1032.117188 832.078125 L 900.722656 813.800781 C 901.359375 871.472656 898.089844 935.832031 890.476562 1003.5625 C 890.09375 1007.125 892.589844 1010.367188 896.136719 1010.859375 Z M 893.726562 703.144531 C 896.828125 727.574219 898.949219 754.507812 900.007812 783.414062 L 1017.75 799.792969 C 1022.59375 800.472656 1026.464844 795.808594 1024.9375 791.167969 C 1017.667969 769.070312 1009.019531 748.140625 999.105469 728.679688 C 969.710938 670.894531 929.261719 625.976562 881.085938 600.402344 C 875.640625 597.511719 869.566406 602.886719 871.8125 608.632812 C 881.617188 633.667969 888.976562 665.664062 893.726562 703.144531 Z M 1025.855469 715.085938 C 1039.363281 741.648438 1050.6875 770.667969 1059.523438 801.617188 C 1060.242188 804.128906 1062.359375 806.003906 1064.957031 806.355469 L 1136.207031 816.261719 C 1141.527344 817 1145.496094 811.382812 1142.96875 806.636719 C 1131.246094 784.613281 1117.648438 763.632812 1102.410156 743.984375 C 1073.519531 706.734375 1038.628906 674.144531 998.964844 647.753906 C 992.789062 643.648438 985.511719 651.25 989.960938 657.160156 C 1003.191406 674.773438 1015.203125 694.167969 1025.855469 715.085938 Z M 1077.683594 838.410156 C 1073.164062 837.773438 1069.414062 841.8125 1070.304688 846.285156 C 1081.597656 903.238281 1084.988281 965.265625 1079.019531 1029.546875 C 1078.683594 1033.074219 1081.167969 1036.25 1084.675781 1036.714844 L 1185.371094 1050.542969 C 1189.113281 1051.058594 1192.5625 1048.324219 1192.839844 1044.550781 C 1198.027344 976.359375 1187.132812 910.300781 1163.210938 850.300781 Z M 1181.753906 1080.355469 L 1081.125 1066.539062 C 1077.554688 1066.042969 1074.269531 1068.53125 1073.710938 1072.09375 C 1063.609375 1136.867188 1044.710938 1197.027344 1019.222656 1250.101562 C 1017.253906 1254.1875 1019.929688 1258.972656 1024.445312 1259.480469 L 1106.398438 1268.800781 C 1108.785156 1269.082031 1111.140625 1268.035156 1112.53125 1266.097656 C 1149.5 1214.496094 1175.683594 1154.179688 1187.351562 1088 C 1188.015625 1084.316406 1185.457031 1080.867188 1181.753906 1080.355469 Z M 997.71875 1290.621094 C 981.460938 1318.398438 963.273438 1343.6875 943.582031 1366.054688 C 928.078125 1383.667969 911.617188 1399.464844 894.398438 1413.25 C 888.621094 1417.867188 893.777344 1427.042969 900.78125 1424.601562 C 945.761719 1408.910156 987.664062 1386.023438 1024.914062 1357.136719 C 1047.929688 1339.285156 1069.195312 1319.117188 1088.285156 1296.960938 L 1004.160156 1287.386719 C 1001.558594 1287.078125 999.039062 1288.367188 997.71875 1290.621094 Z M 921.054688 1346.234375 C 935.5 1329.851562 949.078125 1311.753906 961.621094 1292.136719 C 964.253906 1288.023438 961.667969 1282.542969 956.804688 1281.996094 L 844.179688 1269.191406 C 841.011719 1268.835938 838.03125 1270.8125 837.117188 1273.867188 C 829.355469 1299.570312 821.15625 1323.324219 812.632812 1344.769531 C 798.710938 1379.867188 783.597656 1409.019531 767.894531 1430.835938 C 764.289062 1435.839844 768.835938 1442.558594 774.832031 1441.113281 C 827.855469 1428.332031 878.207031 1394.867188 921.054688 1346.234375 Z M 854.542969 1240.164062 L 978.753906 1254.296875 C 981.488281 1254.601562 984.128906 1253.214844 985.386719 1250.777344 C 1012.878906 1197.339844 1033.273438 1135.453125 1043.839844 1068.210938 C 1044.410156 1064.5625 1041.847656 1061.15625 1038.191406 1060.648438 L 892.59375 1040.660156 C 888.980469 1040.160156 885.660156 1042.714844 885.160156 1046.328125 C 875.988281 1113.328125 863.507812 1176.195312 848.890625 1231.917969 C 847.890625 1235.820312 850.550781 1239.703125 854.542969 1240.164062 Z M 643.457031 1210.335938 C 643.496094 1213.664062 646.011719 1216.425781 649.332031 1216.800781 L 816.777344 1235.851562 C 832.359375 1178.597656 845.6875 1112.847656 855.34375 1042.207031 C 855.84375 1038.59375 853.292969 1035.253906 849.679688 1034.753906 L 662.054688 1008.992188 C 658.398438 1008.484375 655.007812 1011.097656 654.589844 1014.765625 C 646.339844 1084.921875 642.808594 1151.359375 643.457031 1210.335938 Z M 808.414062 1265.109375 L 652.140625 1247.339844 C 648.105469 1246.875 644.589844 1250.152344 644.800781 1254.230469 C 645.941406 1276.542969 647.746094 1297.46875 650.195312 1316.753906 C 659.929688 1393.367188 678.074219 1442.292969 702.300781 1445.355469 C 726.527344 1448.414062 756.273438 1405.546875 784.765625 1333.761719 C 792.953125 1313.046875 800.902344 1290.050781 808.414062 1265.109375 Z M 624.753906 1010.441406 C 625.183594 1006.863281 622.667969 1003.617188 619.097656 1003.121094 L 473.390625 983.121094 C 469.710938 982.613281 466.292969 985.261719 465.914062 988.957031 C 458.292969 1061.460938 463.070312 1130.953125 478.015625 1192.992188 C 478.664062 1195.695312 480.945312 1197.679688 483.703125 1197.980469 L 606.027344 1211.902344 C 609.976562 1212.355469 613.410156 1209.246094 613.382812 1205.28125 C 612.925781 1146.019531 616.570312 1079.882812 624.753906 1010.441406 Z M 620.421875 1320.457031 C 617.421875 1296.828125 615.351562 1270.871094 614.246094 1243.035156 L 498.28125 1229.855469 C 493.4375 1229.308594 489.699219 1233.988281 491.296875 1238.59375 C 498.125 1258.433594 506.070312 1277.269531 515.042969 1294.9375 C 544.441406 1352.703125 584.886719 1397.644531 633.0625 1423.21875 C 638.507812 1426.105469 644.582031 1420.730469 642.335938 1414.988281 C 632.539062 1389.90625 625.179688 1357.910156 620.421875 1320.457031 Z M 488.296875 1308.488281 C 475.828125 1283.996094 465.253906 1257.40625 456.738281 1229.140625 C 455.980469 1226.601562 453.789062 1224.761719 451.164062 1224.472656 L 382.949219 1216.707031 C 377.609375 1216.101562 373.78125 1221.824219 376.421875 1226.519531 C 386.894531 1245.058594 398.71875 1262.824219 411.742188 1279.617188 C 440.628906 1316.863281 475.523438 1349.453125 515.1875 1375.84375 C 521.359375 1379.949219 528.640625 1372.351562 524.191406 1366.4375 C 510.964844 1348.804688 498.949219 1329.410156 488.296875 1308.488281 Z M 445.417969 1184.910156 C 432.292969 1123.101562 428.546875 1055.039062 436.101562 984.464844 C 436.484375 980.902344 433.984375 977.679688 430.457031 977.1875 L 329.65625 963.347656 C 325.957031 962.835938 322.539062 965.488281 322.179688 969.207031 C 314.878906 1043.335938 326.667969 1115.191406 353.601562 1179.753906 C 354.535156 1181.964844 356.585938 1183.5 358.976562 1183.757812 L 438.238281 1192.785156 C 442.664062 1193.300781 446.363281 1189.300781 445.417969 1184.910156 Z M 445.417969 1184.910156 " fill-opacity="1" fill-rule="evenodd"/></g></g></g></g></g></svg>