<svg xmlns="http://www.w3.org/2000/svg" xmlns:xlink="http://www.w3.org/1999/xlink" width="3000" zoomAndPan="magnify" viewBox="0 0 2250 1499.999933" height="2000" preserveAspectRatio="xMidYMid meet" version="1.0"><defs><g/><clipPath id="910c57ee76"><path d="M 848 412 L 1461 412 L 1461 1012 L 848 1012 Z M 848 412 " clip-rule="nonzero"/></clipPath><clipPath id="635673b1b2"><path d="M 850.855469 393.273438 L 1474.757812 404.328125 L 1463.707031 1028.230469 L 839.804688 1017.175781 Z M 850.855469 393.273438 " clip-rule="nonzero"/></clipPath><clipPath id="2179abef84"><path d="M 850.855469 393.273438 L 1474.757812 404.328125 L 1463.707031 1028.230469 L 839.804688 1017.175781 Z M 850.855469 393.273438 " clip-rule="nonzero"/></clipPath><clipPath id="50180f1027"><rect x="0" width="1843" y="0" height="831"/></clipPath><clipPath id="cdbb05c09c"><path d="M 973.101562 680.316406 L 1059.144531 680.316406 L 1059.144531 862.617188 L 973.101562 862.617188 Z M 973.101562 680.316406 " clip-rule="nonzero"/></clipPath><clipPath id="a901404be3"><path d="M 0.101562 0.316406 L 86.144531 0.316406 L 86.144531 182.617188 L 0.101562 182.617188 Z M 0.101562 0.316406 " clip-rule="nonzero"/></clipPath><clipPath id="06e46cf9a4"><rect x="0" width="87" y="0" height="183"/></clipPath><clipPath id="f3caa1ae56"><rect x="0" width="1214" y="0" height="693"/></clipPath></defs><rect x="-225" width="2700" fill="#ffffff" y="-149.999993" height="1799.99992" fill-opacity="1"/><rect x="-225" width="2700" fill="#1c1a16" y="-149.999993" height="1799.99992" fill-opacity="1"/><g clip-path="url(#910c57ee76)"><g clip-path="url(#635673b1b2)"><g clip-path="url(#2179abef84)"><path fill="#b8433a" d="M 1353.121094 422.679688 C 1295.015625 400.886719 1227.117188 412.429688 1179.492188 458.394531 C 1131.867188 504.363281 1117.925781 571.8125 1137.648438 630.652344 L 869.902344 889.074219 C 841.539062 916.453125 840.742188 961.332031 868.121094 989.695312 C 895.5 1018.0625 940.375 1018.859375 968.742188 991.480469 L 1236.484375 733.054688 C 1294.589844 754.851562 1362.488281 743.308594 1410.117188 697.339844 C 1457.742188 651.371094 1471.683594 583.925781 1451.960938 525.082031 L 1372.667969 601.613281 C 1344.304688 628.992188 1299.425781 628.199219 1272.046875 599.832031 C 1244.667969 571.464844 1245.464844 526.589844 1273.828125 499.210938 Z M 1353.121094 422.679688 " fill-opacity="1" fill-rule="nonzero"/></g></g></g><g transform="matrix(1, 0, 0, 1, 7, 146)"><g clip-path="url(#50180f1027)"><g fill="#b8433a" fill-opacity="1"><g transform="translate(0.957402, 615.385605)"><g><path d="M 496.203125 110.265625 C 462.035156 110.265625 433.0625 104.859375 409.28125 94.046875 C 385.5 83.234375 366.039062 71.34375 350.90625 58.375 C 333.613281 43.238281 319.34375 25.941406 308.09375 6.484375 C 305.5 7.347656 302.472656 8 299.015625 8.4375 C 295.984375 8.863281 292.519531 9.1875 288.625 9.40625 C 284.738281 9.625 280.421875 9.734375 275.671875 9.734375 C 240.640625 9.734375 208.097656 3.460938 178.046875 -9.078125 C 147.992188 -21.617188 121.941406 -38.59375 99.890625 -60 C 77.835938 -81.40625 60.539062 -106.484375 48 -135.234375 C 35.457031 -163.992188 29.1875 -194.585938 29.1875 -227.015625 C 29.1875 -259.453125 35.457031 -290.046875 48 -318.796875 C 60.539062 -347.554688 77.835938 -372.632812 99.890625 -394.03125 C 121.941406 -415.4375 147.992188 -432.410156 178.046875 -444.953125 C 208.097656 -457.492188 240.640625 -463.765625 275.671875 -463.765625 C 310.691406 -463.765625 343.226562 -457.492188 373.28125 -444.953125 C 403.332031 -432.410156 429.382812 -415.4375 451.4375 -394.03125 C 473.488281 -372.632812 490.785156 -347.554688 503.328125 -318.796875 C 515.867188 -290.046875 522.140625 -259.453125 522.140625 -227.015625 C 522.140625 -208.421875 520.300781 -191.234375 516.625 -175.453125 C 512.945312 -159.671875 508.191406 -145.1875 502.359375 -132 C 496.523438 -118.8125 489.710938 -107.023438 481.921875 -96.640625 C 474.140625 -86.265625 466.359375 -76.96875 458.578125 -68.75 C 439.984375 -49.726562 419.007812 -34.378906 395.65625 -22.703125 C 403.007812 -13.617188 411.875 -5.398438 422.25 1.953125 C 430.90625 8.003906 441.609375 13.515625 454.359375 18.484375 C 467.117188 23.453125 482.144531 25.9375 499.4375 25.9375 C 503.332031 25.9375 507.117188 25.828125 510.796875 25.609375 C 514.472656 25.398438 517.609375 25.078125 520.203125 24.640625 C 523.222656 24.210938 526.03125 23.566406 528.625 22.703125 L 528.625 107.015625 C 526.03125 107.890625 523.003906 108.539062 519.546875 108.96875 C 516.523438 109.40625 513.066406 109.726562 509.171875 109.9375 C 505.273438 110.15625 500.953125 110.265625 496.203125 110.265625 Z M 275.671875 -81.078125 C 295.992188 -81.078125 315.019531 -84.859375 332.75 -92.421875 C 350.476562 -99.992188 365.9375 -110.375 379.125 -123.5625 C 392.3125 -136.75 402.6875 -152.207031 410.25 -169.9375 C 417.820312 -187.664062 421.609375 -206.691406 421.609375 -227.015625 C 421.609375 -247.335938 417.820312 -266.363281 410.25 -284.09375 C 402.6875 -301.820312 392.3125 -317.28125 379.125 -330.46875 C 365.9375 -343.65625 350.476562 -354.03125 332.75 -361.59375 C 315.019531 -369.164062 295.992188 -372.953125 275.671875 -372.953125 C 255.347656 -372.953125 236.320312 -369.164062 218.59375 -361.59375 C 200.863281 -354.03125 185.398438 -343.65625 172.203125 -330.46875 C 159.015625 -317.28125 148.632812 -301.820312 141.0625 -284.09375 C 133.5 -266.363281 129.71875 -247.335938 129.71875 -227.015625 C 129.71875 -206.691406 133.5 -187.664062 141.0625 -169.9375 C 148.632812 -152.207031 159.015625 -136.75 172.203125 -123.5625 C 185.398438 -110.375 200.863281 -99.992188 218.59375 -92.421875 C 236.320312 -84.859375 255.347656 -81.078125 275.671875 -81.078125 Z M 275.671875 -81.078125 "/></g></g></g><g fill="#b8433a" fill-opacity="1"><g transform="translate(545.148313, 615.385605)"><g><path d="M 158.90625 6.484375 C 142.476562 6.484375 127.238281 3.347656 113.1875 -2.921875 C 99.132812 -9.191406 86.8125 -18.054688 76.21875 -29.515625 C 65.625 -40.972656 57.296875 -54.914062 51.234375 -71.34375 C 45.179688 -87.78125 42.15625 -106.160156 42.15625 -126.484375 L 42.15625 -317.828125 L 129.71875 -317.828125 L 129.71875 -139.453125 C 129.71875 -119.992188 134.90625 -104.859375 145.28125 -94.046875 C 155.664062 -83.234375 169.9375 -77.828125 188.09375 -77.828125 C 207.5625 -77.828125 223.78125 -84.421875 236.75 -97.609375 C 249.71875 -110.804688 256.203125 -128 256.203125 -149.1875 L 256.203125 -317.828125 L 343.765625 -317.828125 L 343.765625 0 L 256.203125 0 L 256.203125 -45.40625 L 252.96875 -45.40625 C 246.039062 -35.894531 238.039062 -27.242188 228.96875 -19.453125 C 221.1875 -12.972656 211.347656 -7.03125 199.453125 -1.625 C 187.554688 3.78125 174.039062 6.484375 158.90625 6.484375 Z M 158.90625 6.484375 "/></g></g></g><g fill="#b8433a" fill-opacity="1"><g transform="translate(923.941592, 615.385605)"><g><path d="M 42.15625 -317.828125 L 129.71875 -317.828125 L 129.71875 0 L 42.15625 0 Z M 85.625 -359.984375 C 71.78125 -359.984375 59.992188 -364.847656 50.265625 -374.578125 C 40.535156 -384.304688 35.671875 -395.660156 35.671875 -408.640625 C 35.671875 -421.609375 40.644531 -432.957031 50.59375 -442.6875 C 60.539062 -452.414062 72.429688 -457.28125 86.265625 -457.28125 C 100.097656 -457.28125 111.878906 -452.414062 121.609375 -442.6875 C 131.347656 -432.957031 136.21875 -421.609375 136.21875 -408.640625 C 136.21875 -395.660156 131.242188 -384.304688 121.296875 -374.578125 C 111.347656 -364.847656 99.457031 -359.984375 85.625 -359.984375 Z M 85.625 -359.984375 "/></g></g></g><g fill="#b8433a" fill-opacity="1"><g transform="translate(1088.693288, 615.385605)"><g/></g></g><g fill="#b8433a" fill-opacity="1"><g transform="translate(1217.768277, 615.385605)"><g/></g></g><g fill="#b8433a" fill-opacity="1"><g transform="translate(1346.843267, 615.385605)"><g/></g></g><g fill="#b8433a" fill-opacity="1"><g transform="translate(1475.931472, 615.385605)"><g><path d="M 45.40625 -454.03125 L 132.96875 -454.03125 L 132.96875 -188.09375 L 246.484375 -317.828125 L 350.25 -317.828125 L 233.5 -184.859375 L 356.75 0 L 256.203125 0 L 175.125 -123.234375 L 132.96875 -74.59375 L 132.96875 0 L 45.40625 0 Z M 45.40625 -454.03125 "/></g></g></g></g></g><g clip-path="url(#cdbb05c09c)"><g transform="matrix(1, 0, 0, 1, 973, 680)"><g clip-path="url(#06e46cf9a4)"><g clip-path="url(#a901404be3)"><path fill="#b8433a" d="M 0.105469 0.316406 L 86.144531 0.316406 L 86.144531 182.480469 L 0.105469 182.480469 Z M 0.105469 0.316406 " fill-opacity="1" fill-rule="nonzero"/></g></g></g></g><g transform="matrix(1, 0, 0, 1, 993, 629)"><g clip-path="url(#f3caa1ae56)"><g fill="#b8433a" fill-opacity="1"><g transform="translate(1.365989, 513.717857)"><g><path d="M 156.828125 8.109375 C 132.316406 8.109375 110.957031 5.046875 92.75 -1.078125 C 74.539062 -7.210938 59.304688 -14.0625 47.046875 -21.625 C 32.628906 -30.28125 20.550781 -40.195312 10.8125 -51.375 L 64.890625 -105.453125 C 71.378906 -97.878906 79.132812 -91.03125 88.15625 -84.90625 C 95.71875 -79.851562 105 -75.253906 116 -71.109375 C 127 -66.960938 139.707031 -64.890625 154.125 -64.890625 C 175.757812 -64.890625 191.53125 -69.035156 201.4375 -77.328125 C 211.351562 -85.617188 216.3125 -95.894531 216.3125 -108.15625 C 216.3125 -118.976562 211.625 -127.539062 202.25 -133.84375 C 192.882812 -140.15625 181.171875 -145.832031 167.109375 -150.875 C 153.046875 -155.925781 137.898438 -161.15625 121.671875 -166.5625 C 105.453125 -171.96875 90.3125 -179.085938 76.25 -187.921875 C 62.1875 -196.753906 50.46875 -208.109375 41.09375 -221.984375 C 31.726562 -235.867188 27.046875 -253.8125 27.046875 -275.8125 C 27.046875 -290.59375 30.195312 -304.738281 36.5 -318.25 C 42.8125 -331.769531 51.828125 -343.578125 63.546875 -353.671875 C 75.265625 -363.773438 89.6875 -371.800781 106.8125 -377.75 C 123.9375 -383.695312 143.3125 -386.671875 164.9375 -386.671875 C 185.851562 -386.671875 204.332031 -383.96875 220.375 -378.5625 C 236.414062 -373.15625 249.664062 -367.207031 260.125 -360.71875 C 272.382812 -353.144531 283.019531 -344.671875 292.03125 -335.296875 L 237.953125 -281.21875 C 232.179688 -287.34375 225.867188 -292.75 219.015625 -297.4375 C 212.890625 -301.40625 205.5 -305.097656 196.84375 -308.515625 C 188.195312 -311.941406 178.460938 -313.65625 167.640625 -313.65625 C 147.097656 -313.65625 132.5 -310.050781 123.84375 -302.84375 C 115.1875 -295.632812 110.859375 -286.625 110.859375 -275.8125 C 110.859375 -264.988281 115.546875 -256.421875 124.921875 -250.109375 C 134.296875 -243.804688 146.015625 -238.128906 160.078125 -233.078125 C 174.140625 -228.035156 189.28125 -222.804688 205.5 -217.390625 C 221.726562 -211.984375 236.867188 -204.863281 250.921875 -196.03125 C 264.984375 -187.207031 276.703125 -175.851562 286.078125 -161.96875 C 295.453125 -148.082031 300.140625 -130.144531 300.140625 -108.15625 C 300.140625 -92.65625 296.894531 -77.875 290.40625 -63.8125 C 283.914062 -49.75 274.453125 -37.398438 262.015625 -26.765625 C 249.578125 -16.128906 234.523438 -7.65625 216.859375 -1.34375 C 199.191406 4.957031 179.179688 8.109375 156.828125 8.109375 Z M 156.828125 8.109375 "/></g></g></g><g fill="#b8433a" fill-opacity="1"><g transform="translate(311.779183, 513.717857)"><g><path d="M 146.015625 5.40625 C 118.972656 5.40625 97.335938 -2.972656 81.109375 -19.734375 C 64.890625 -36.503906 56.78125 -60.570312 56.78125 -91.9375 L 56.78125 -191.984375 L 10.8125 -191.984375 L 10.8125 -259.578125 L 35.15625 -259.578125 C 54.976562 -259.578125 64.890625 -270.394531 64.890625 -292.03125 L 64.890625 -340.703125 L 129.796875 -340.703125 L 129.796875 -259.578125 L 189.28125 -259.578125 L 189.28125 -191.984375 L 129.796875 -191.984375 L 129.796875 -102.75 C 129.796875 -90.488281 132.945312 -81.113281 139.25 -74.625 C 145.5625 -68.132812 154.125 -64.890625 164.9375 -64.890625 C 172.875 -64.890625 179.90625 -65.789062 186.03125 -67.59375 C 189.28125 -68.320312 192.164062 -69.222656 194.6875 -70.296875 L 194.6875 -2.703125 C 190.363281 -1.265625 185.675781 0.175781 180.625 1.625 C 176.300781 2.707031 171.164062 3.609375 165.21875 4.328125 C 159.269531 5.046875 152.867188 5.40625 146.015625 5.40625 Z M 146.015625 5.40625 "/></g></g></g><g fill="#b8433a" fill-opacity="1"><g transform="translate(516.738391, 513.717857)"><g><path d="M 102.75 5.40625 C 90.488281 5.40625 79.398438 3.515625 69.484375 -0.265625 C 59.578125 -4.054688 51.109375 -9.375 44.078125 -16.21875 C 37.046875 -23.070312 31.546875 -31.09375 27.578125 -40.28125 C 23.609375 -49.476562 21.625 -59.484375 21.625 -70.296875 C 21.625 -91.929688 28.5625 -110.410156 42.4375 -125.734375 C 56.320312 -141.054688 75.523438 -150.878906 100.046875 -155.203125 L 183.875 -170.34375 C 182.425781 -179.71875 177.828125 -187.921875 170.078125 -194.953125 C 162.328125 -201.984375 151.601562 -205.5 137.90625 -205.5 C 128.53125 -205.5 120.144531 -203.96875 112.75 -200.90625 C 105.363281 -197.84375 99.144531 -194.328125 94.09375 -190.359375 C 87.96875 -186.035156 82.742188 -181.171875 78.421875 -175.765625 L 35.15625 -219.015625 C 42.726562 -228.390625 51.921875 -236.863281 62.734375 -244.4375 C 72.109375 -250.925781 83.460938 -256.875 96.796875 -262.28125 C 110.140625 -267.6875 125.644531 -270.390625 143.3125 -270.390625 C 160.257812 -270.390625 175.671875 -267.6875 189.546875 -262.28125 C 203.429688 -256.875 215.421875 -249.394531 225.515625 -239.84375 C 235.609375 -230.289062 243.359375 -219.113281 248.765625 -206.3125 C 254.171875 -193.507812 256.875 -179.71875 256.875 -164.9375 L 256.875 0 L 183.875 0 L 183.875 -32.453125 L 181.171875 -32.453125 C 175.398438 -25.234375 168.726562 -18.921875 161.15625 -13.515625 C 154.664062 -8.472656 146.460938 -4.054688 136.546875 -0.265625 C 126.628906 3.515625 115.363281 5.40625 102.75 5.40625 Z M 127.09375 -54.078125 C 143.3125 -54.078125 156.828125 -59.570312 167.640625 -70.5625 C 178.460938 -81.5625 183.875 -95.894531 183.875 -113.5625 L 183.875 -118.96875 L 124.390625 -108.15625 C 115.015625 -106.351562 107.710938 -103.109375 102.484375 -98.421875 C 97.253906 -93.734375 94.640625 -87.96875 94.640625 -81.125 C 94.640625 -72.832031 97.34375 -66.25 102.75 -61.375 C 108.15625 -56.507812 116.269531 -54.078125 127.09375 -54.078125 Z M 127.09375 -54.078125 "/></g></g></g><g fill="#b8433a" fill-opacity="1"><g transform="translate(802.815944, 513.717857)"><g><path d="M 35.15625 -264.984375 L 108.15625 -264.984375 L 108.15625 -227.140625 L 110.859375 -227.140625 C 116.628906 -235.066406 123.300781 -242.273438 130.875 -248.765625 C 137.363281 -254.171875 145.472656 -259.125 155.203125 -263.625 C 164.941406 -268.132812 176.300781 -270.390625 189.28125 -270.390625 L 194.6875 -270.390625 L 194.6875 -191.984375 C 192.882812 -192.347656 190.898438 -192.707031 188.734375 -193.0625 C 186.578125 -193.425781 183.960938 -193.785156 180.890625 -194.140625 C 177.828125 -194.503906 174.3125 -194.6875 170.34375 -194.6875 C 152.6875 -194.6875 137.90625 -188.375 126 -175.75 C 114.101562 -163.132812 108.15625 -146.015625 108.15625 -124.390625 L 108.15625 0 L 35.15625 0 Z M 35.15625 -264.984375 "/></g></g></g><g fill="#b8433a" fill-opacity="1"><g transform="translate(1002.367279, 513.717857)"><g><path d="M 146.015625 5.40625 C 118.972656 5.40625 97.335938 -2.972656 81.109375 -19.734375 C 64.890625 -36.503906 56.78125 -60.570312 56.78125 -91.9375 L 56.78125 -191.984375 L 10.8125 -191.984375 L 10.8125 -259.578125 L 35.15625 -259.578125 C 54.976562 -259.578125 64.890625 -270.394531 64.890625 -292.03125 L 64.890625 -340.703125 L 129.796875 -340.703125 L 129.796875 -259.578125 L 189.28125 -259.578125 L 189.28125 -191.984375 L 129.796875 -191.984375 L 129.796875 -102.75 C 129.796875 -90.488281 132.945312 -81.113281 139.25 -74.625 C 145.5625 -68.132812 154.125 -64.890625 164.9375 -64.890625 C 172.875 -64.890625 179.90625 -65.789062 186.03125 -67.59375 C 189.28125 -68.320312 192.164062 -69.222656 194.6875 -70.296875 L 194.6875 -2.703125 C 190.363281 -1.265625 185.675781 0.175781 180.625 1.625 C 176.300781 2.707031 171.164062 3.609375 165.21875 4.328125 C 159.269531 5.046875 152.867188 5.40625 146.015625 5.40625 Z M 146.015625 5.40625 "/></g></g></g></g></g></svg>