<svg xmlns="http://www.w3.org/2000/svg" xmlns:xlink="http://www.w3.org/1999/xlink" width="3000" zoomAndPan="magnify" viewBox="0 0 2250 1499.999933" height="2000" preserveAspectRatio="xMidYMid meet" version="1.0"><defs><g/><clipPath id="ef838bf1c8"><path d="M 841 266 L 1454 266 L 1454 866 L 841 866 Z M 841 266 " clip-rule="nonzero"/></clipPath><clipPath id="a3c1807fc4"><path d="M 843.855469 247.273438 L 1467.636719 258.324219 L 1456.585938 882.105469 L 832.804688 871.054688 Z M 843.855469 247.273438 " clip-rule="nonzero"/></clipPath><clipPath id="18f6f8e1a9"><path d="M 843.855469 247.273438 L 1467.636719 258.324219 L 1456.585938 882.105469 L 832.804688 871.054688 Z M 843.855469 247.273438 " clip-rule="nonzero"/></clipPath><clipPath id="732c105aab"><path d="M 0.199219 0.160156 L 1843 0.160156 L 1843 831 L 0.199219 831 Z M 0.199219 0.160156 " clip-rule="nonzero"/></clipPath><clipPath id="23a45e4d8e"><rect x="0" width="1843" y="0" height="831"/></clipPath><clipPath id="68fa28d2b5"><path d="M 966.105469 534.316406 L 1052.144531 534.316406 L 1052.144531 716.617188 L 966.105469 716.617188 Z M 966.105469 534.316406 " clip-rule="nonzero"/></clipPath><clipPath id="d986548069"><path d="M 0.105469 0.316406 L 86.144531 0.316406 L 86.144531 182.617188 L 0.105469 182.617188 Z M 0.105469 0.316406 " clip-rule="nonzero"/></clipPath><clipPath id="a9ce2faad0"><rect x="0" width="87" y="0" height="183"/></clipPath><clipPath id="7d814d5a7b"><path d="M 986 483 L 2199.320312 483 L 2199.320312 1176 L 986 1176 Z M 986 483 " clip-rule="nonzero"/></clipPath><clipPath id="3c12ba5f1e"><rect x="0" width="1214" y="0" height="693"/></clipPath><clipPath id="90d4691361"><path d="M 1064 1009 L 2165 1009 L 2165 1187.441406 L 1064 1187.441406 Z M 1064 1009 " clip-rule="nonzero"/></clipPath><clipPath id="327fd62c80"><rect x="0" width="1101" y="0" height="179"/></clipPath><clipPath id="09b897e696"><rect x="0" width="2200" y="0" height="1188"/></clipPath></defs><rect x="-225" width="2700" fill="#ffffff" y="-149.999993" height="1799.99992" fill-opacity="1"/><rect x="-225" width="2700" fill="#1c1a16" y="-149.999993" height="1799.99992" fill-opacity="1"/><g transform="matrix(1, 0, 0, 1, 7, 146)"><g clip-path="url(#09b897e696)"><g clip-path="url(#ef838bf1c8)"><g clip-path="url(#a3c1807fc4)"><g clip-path="url(#18f6f8e1a9)"><path fill="#b8433a" d="M 1346.125 276.679688 C 1288.019531 254.886719 1220.117188 266.429688 1172.492188 312.398438 C 1124.867188 358.363281 1110.925781 425.8125 1130.648438 484.652344 L 862.902344 743.078125 C 834.539062 770.457031 833.742188 815.335938 861.121094 843.699219 C 888.5 872.066406 933.375 872.863281 961.742188 845.484375 L 1229.488281 587.058594 C 1287.59375 608.851562 1355.492188 597.308594 1403.121094 551.339844 C 1450.746094 505.375 1464.6875 437.925781 1444.964844 379.085938 L 1365.671875 455.617188 C 1337.304688 482.996094 1292.429688 482.199219 1265.050781 453.832031 C 1237.671875 425.46875 1238.464844 380.589844 1266.832031 353.210938 Z M 1346.125 276.679688 " fill-opacity="1" fill-rule="nonzero"/></g></g></g><g clip-path="url(#732c105aab)"><g transform="matrix(1, 0, 0, 1, -0.000000000000000888, 0.000000000000113687)"><g clip-path="url(#23a45e4d8e)"><g fill="#b8433a" fill-opacity="1"><g transform="translate(0.957414, 615.385649)"><g><path d="M 496.203125 110.265625 C 462.035156 110.265625 433.0625 104.859375 409.28125 94.046875 C 385.5 83.234375 366.039062 71.34375 350.90625 58.375 C 333.613281 43.238281 319.34375 25.941406 308.09375 6.484375 C 305.5 7.347656 302.472656 8 299.015625 8.4375 C 295.984375 8.863281 292.519531 9.1875 288.625 9.40625 C 284.738281 9.625 280.421875 9.734375 275.671875 9.734375 C 240.640625 9.734375 208.097656 3.460938 178.046875 -9.078125 C 147.992188 -21.617188 121.941406 -38.59375 99.890625 -60 C 77.835938 -81.40625 60.539062 -106.484375 48 -135.234375 C 35.457031 -163.992188 29.1875 -194.585938 29.1875 -227.015625 C 29.1875 -259.453125 35.457031 -290.046875 48 -318.796875 C 60.539062 -347.554688 77.835938 -372.632812 99.890625 -394.03125 C 121.941406 -415.4375 147.992188 -432.410156 178.046875 -444.953125 C 208.097656 -457.492188 240.640625 -463.765625 275.671875 -463.765625 C 310.691406 -463.765625 343.226562 -457.492188 373.28125 -444.953125 C 403.332031 -432.410156 429.382812 -415.4375 451.4375 -394.03125 C 473.488281 -372.632812 490.785156 -347.554688 503.328125 -318.796875 C 515.867188 -290.046875 522.140625 -259.453125 522.140625 -227.015625 C 522.140625 -208.421875 520.300781 -191.234375 516.625 -175.453125 C 512.945312 -159.671875 508.191406 -145.1875 502.359375 -132 C 496.523438 -118.8125 489.710938 -107.023438 481.921875 -96.640625 C 474.140625 -86.265625 466.359375 -76.96875 458.578125 -68.75 C 439.984375 -49.726562 419.007812 -34.378906 395.65625 -22.703125 C 403.007812 -13.617188 411.875 -5.398438 422.25 1.953125 C 430.90625 8.003906 441.609375 13.515625 454.359375 18.484375 C 467.117188 23.453125 482.144531 25.9375 499.4375 25.9375 C 503.332031 25.9375 507.117188 25.828125 510.796875 25.609375 C 514.472656 25.398438 517.609375 25.078125 520.203125 24.640625 C 523.222656 24.210938 526.03125 23.566406 528.625 22.703125 L 528.625 107.015625 C 526.03125 107.890625 523.003906 108.539062 519.546875 108.96875 C 516.523438 109.40625 513.066406 109.726562 509.171875 109.9375 C 505.273438 110.15625 500.953125 110.265625 496.203125 110.265625 Z M 275.671875 -81.078125 C 295.992188 -81.078125 315.019531 -84.859375 332.75 -92.421875 C 350.476562 -99.992188 365.9375 -110.375 379.125 -123.5625 C 392.3125 -136.75 402.6875 -152.207031 410.25 -169.9375 C 417.820312 -187.664062 421.609375 -206.691406 421.609375 -227.015625 C 421.609375 -247.335938 417.820312 -266.363281 410.25 -284.09375 C 402.6875 -301.820312 392.3125 -317.28125 379.125 -330.46875 C 365.9375 -343.65625 350.476562 -354.03125 332.75 -361.59375 C 315.019531 -369.164062 295.992188 -372.953125 275.671875 -372.953125 C 255.347656 -372.953125 236.320312 -369.164062 218.59375 -361.59375 C 200.863281 -354.03125 185.398438 -343.65625 172.203125 -330.46875 C 159.015625 -317.28125 148.632812 -301.820312 141.0625 -284.09375 C 133.5 -266.363281 129.71875 -247.335938 129.71875 -227.015625 C 129.71875 -206.691406 133.5 -187.664062 141.0625 -169.9375 C 148.632812 -152.207031 159.015625 -136.75 172.203125 -123.5625 C 185.398438 -110.375 200.863281 -99.992188 218.59375 -92.421875 C 236.320312 -84.859375 255.347656 -81.078125 275.671875 -81.078125 Z M 275.671875 -81.078125 "/></g></g></g><g fill="#b8433a" fill-opacity="1"><g transform="translate(545.148368, 615.385649)"><g><path d="M 158.90625 6.484375 C 142.476562 6.484375 127.238281 3.347656 113.1875 -2.921875 C 99.132812 -9.191406 86.8125 -18.054688 76.21875 -29.515625 C 65.625 -40.972656 57.296875 -54.914062 51.234375 -71.34375 C 45.179688 -87.78125 42.15625 -106.160156 42.15625 -126.484375 L 42.15625 -317.828125 L 129.71875 -317.828125 L 129.71875 -139.453125 C 129.71875 -119.992188 134.90625 -104.859375 145.28125 -94.046875 C 155.664062 -83.234375 169.9375 -77.828125 188.09375 -77.828125 C 207.5625 -77.828125 223.78125 -84.421875 236.75 -97.609375 C 249.71875 -110.804688 256.203125 -128 256.203125 -149.1875 L 256.203125 -317.828125 L 343.765625 -317.828125 L 343.765625 0 L 256.203125 0 L 256.203125 -45.40625 L 252.96875 -45.40625 C 246.039062 -35.894531 238.039062 -27.242188 228.96875 -19.453125 C 221.1875 -12.972656 211.347656 -7.03125 199.453125 -1.625 C 187.554688 3.777344 174.039062 6.484375 158.90625 6.484375 Z M 158.90625 6.484375 "/></g></g></g><g fill="#b8433a" fill-opacity="1"><g transform="translate(923.941676, 615.385649)"><g><path d="M 42.15625 -317.828125 L 129.71875 -317.828125 L 129.71875 0 L 42.15625 0 Z M 85.625 -359.984375 C 71.78125 -359.984375 59.992188 -364.847656 50.265625 -374.578125 C 40.535156 -384.304688 35.671875 -395.660156 35.671875 -408.640625 C 35.671875 -421.609375 40.644531 -432.957031 50.59375 -442.6875 C 60.539062 -452.414062 72.429688 -457.28125 86.265625 -457.28125 C 100.097656 -457.28125 111.878906 -452.414062 121.609375 -442.6875 C 131.347656 -432.957031 136.21875 -421.609375 136.21875 -408.640625 C 136.21875 -395.660156 131.242188 -384.304688 121.296875 -374.578125 C 111.347656 -364.847656 99.457031 -359.984375 85.625 -359.984375 Z M 85.625 -359.984375 "/></g></g></g><g fill="#b8433a" fill-opacity="1"><g transform="translate(1088.693384, 615.385649)"><g/></g></g><g fill="#b8433a" fill-opacity="1"><g transform="translate(1217.768384, 615.385649)"><g/></g></g><g fill="#b8433a" fill-opacity="1"><g transform="translate(1346.843384, 615.385649)"><g/></g></g><g fill="#b8433a" fill-opacity="1"><g transform="translate(1475.931599, 615.385649)"><g><path d="M 45.40625 -454.03125 L 132.96875 -454.03125 L 132.96875 -188.09375 L 246.484375 -317.828125 L 350.25 -317.828125 L 233.5 -184.859375 L 356.75 0 L 256.203125 0 L 175.125 -123.234375 L 132.96875 -74.59375 L 132.96875 0 L 45.40625 0 Z M 45.40625 -454.03125 "/></g></g></g></g></g></g><g clip-path="url(#68fa28d2b5)"><g transform="matrix(1, 0, 0, 1, 966, 534)"><g clip-path="url(#a9ce2faad0)"><g clip-path="url(#d986548069)"><path fill="#b8433a" d="M 0.105469 0.316406 L 86.144531 0.316406 L 86.144531 182.480469 L 0.105469 182.480469 Z M 0.105469 0.316406 " fill-opacity="1" fill-rule="nonzero"/></g></g></g></g><g clip-path="url(#7d814d5a7b)"><g transform="matrix(1, 0, 0, 1, 986, 483)"><g clip-path="url(#3c12ba5f1e)"><g fill="#b8433a" fill-opacity="1"><g transform="translate(1.366108, 513.718034)"><g><path d="M 156.828125 8.109375 C 132.316406 8.109375 110.957031 5.046875 92.75 -1.078125 C 74.539062 -7.210938 59.304688 -14.0625 47.046875 -21.625 C 32.628906 -30.28125 20.550781 -40.195312 10.8125 -51.375 L 64.890625 -105.453125 C 71.378906 -97.878906 79.132812 -91.03125 88.15625 -84.90625 C 95.71875 -79.851562 105 -75.253906 116 -71.109375 C 127 -66.960938 139.707031 -64.890625 154.125 -64.890625 C 175.757812 -64.890625 191.53125 -69.035156 201.4375 -77.328125 C 211.351562 -85.617188 216.3125 -95.894531 216.3125 -108.15625 C 216.3125 -118.976562 211.625 -127.539062 202.25 -133.84375 C 192.882812 -140.15625 181.171875 -145.832031 167.109375 -150.875 C 153.046875 -155.925781 137.898438 -161.15625 121.671875 -166.5625 C 105.453125 -171.96875 90.3125 -179.085938 76.25 -187.921875 C 62.1875 -196.753906 50.46875 -208.109375 41.09375 -221.984375 C 31.726562 -235.867188 27.046875 -253.8125 27.046875 -275.8125 C 27.046875 -290.59375 30.195312 -304.738281 36.5 -318.25 C 42.8125 -331.769531 51.828125 -343.578125 63.546875 -353.671875 C 75.265625 -363.773438 89.6875 -371.800781 106.8125 -377.75 C 123.9375 -383.695312 143.3125 -386.671875 164.9375 -386.671875 C 185.851562 -386.671875 204.332031 -383.96875 220.375 -378.5625 C 236.414062 -373.15625 249.664062 -367.207031 260.125 -360.71875 C 272.382812 -353.144531 283.019531 -344.671875 292.03125 -335.296875 L 237.953125 -281.21875 C 232.179688 -287.34375 225.867188 -292.75 219.015625 -297.4375 C 212.890625 -301.40625 205.5 -305.097656 196.84375 -308.515625 C 188.195312 -311.941406 178.460938 -313.65625 167.640625 -313.65625 C 147.097656 -313.65625 132.5 -310.050781 123.84375 -302.84375 C 115.1875 -295.632812 110.859375 -286.625 110.859375 -275.8125 C 110.859375 -264.988281 115.546875 -256.421875 124.921875 -250.109375 C 134.296875 -243.804688 146.015625 -238.128906 160.078125 -233.078125 C 174.140625 -228.035156 189.28125 -222.804688 205.5 -217.390625 C 221.726562 -211.984375 236.867188 -204.863281 250.921875 -196.03125 C 264.984375 -187.207031 276.703125 -175.851562 286.078125 -161.96875 C 295.453125 -148.082031 300.140625 -130.144531 300.140625 -108.15625 C 300.140625 -92.65625 296.894531 -77.875 290.40625 -63.8125 C 283.914062 -49.75 274.453125 -37.398438 262.015625 -26.765625 C 249.578125 -16.128906 234.523438 -7.65625 216.859375 -1.34375 C 199.191406 4.957031 179.179688 8.109375 156.828125 8.109375 Z M 156.828125 8.109375 "/></g></g></g><g fill="#b8433a" fill-opacity="1"><g transform="translate(311.779369, 513.718034)"><g><path d="M 146.015625 5.40625 C 118.972656 5.40625 97.335938 -2.972656 81.109375 -19.734375 C 64.890625 -36.503906 56.78125 -60.570312 56.78125 -91.9375 L 56.78125 -191.984375 L 10.8125 -191.984375 L 10.8125 -259.578125 L 35.15625 -259.578125 C 54.976562 -259.578125 64.890625 -270.394531 64.890625 -292.03125 L 64.890625 -340.703125 L 129.796875 -340.703125 L 129.796875 -259.578125 L 189.28125 -259.578125 L 189.28125 -191.984375 L 129.796875 -191.984375 L 129.796875 -102.75 C 129.796875 -90.488281 132.945312 -81.113281 139.25 -74.625 C 145.5625 -68.132812 154.125 -64.890625 164.9375 -64.890625 C 172.875 -64.890625 179.90625 -65.789062 186.03125 -67.59375 C 189.28125 -68.320312 192.164062 -69.222656 194.6875 -70.296875 L 194.6875 -2.703125 C 190.363281 -1.265625 185.675781 0.175781 180.625 1.625 C 176.300781 2.707031 171.164062 3.609375 165.21875 4.328125 C 159.269531 5.046875 152.867188 5.40625 146.015625 5.40625 Z M 146.015625 5.40625 "/></g></g></g><g fill="#b8433a" fill-opacity="1"><g transform="translate(516.738622, 513.718034)"><g><path d="M 102.75 5.40625 C 90.488281 5.40625 79.398438 3.515625 69.484375 -0.265625 C 59.578125 -4.054688 51.109375 -9.375 44.078125 -16.21875 C 37.046875 -23.070312 31.546875 -31.09375 27.578125 -40.28125 C 23.609375 -49.476562 21.625 -59.484375 21.625 -70.296875 C 21.625 -91.929688 28.5625 -110.410156 42.4375 -125.734375 C 56.320312 -141.054688 75.523438 -150.878906 100.046875 -155.203125 L 183.875 -170.34375 C 182.425781 -179.71875 177.828125 -187.921875 170.078125 -194.953125 C 162.328125 -201.984375 151.601562 -205.5 137.90625 -205.5 C 128.53125 -205.5 120.144531 -203.96875 112.75 -200.90625 C 105.363281 -197.84375 99.144531 -194.328125 94.09375 -190.359375 C 87.96875 -186.035156 82.742188 -181.171875 78.421875 -175.765625 L 35.15625 -219.015625 C 42.726562 -228.390625 51.921875 -236.863281 62.734375 -244.4375 C 72.109375 -250.925781 83.460938 -256.875 96.796875 -262.28125 C 110.140625 -267.6875 125.644531 -270.390625 143.3125 -270.390625 C 160.257812 -270.390625 175.671875 -267.6875 189.546875 -262.28125 C 203.429688 -256.875 215.421875 -249.394531 225.515625 -239.84375 C 235.609375 -230.289062 243.359375 -219.113281 248.765625 -206.3125 C 254.171875 -193.507812 256.875 -179.71875 256.875 -164.9375 L 256.875 0 L 183.875 0 L 183.875 -32.453125 L 181.171875 -32.453125 C 175.398438 -25.234375 168.726562 -18.921875 161.15625 -13.515625 C 154.664062 -8.472656 146.460938 -4.054688 136.546875 -0.265625 C 126.628906 3.515625 115.363281 5.40625 102.75 5.40625 Z M 127.09375 -54.078125 C 143.3125 -54.078125 156.828125 -59.570312 167.640625 -70.5625 C 178.460938 -81.5625 183.875 -95.894531 183.875 -113.5625 L 183.875 -118.96875 L 124.390625 -108.15625 C 115.015625 -106.351562 107.710938 -103.109375 102.484375 -98.421875 C 97.253906 -93.734375 94.640625 -87.96875 94.640625 -81.125 C 94.640625 -72.832031 97.34375 -66.25 102.75 -61.375 C 108.15625 -56.507812 116.269531 -54.078125 127.09375 -54.078125 Z M 127.09375 -54.078125 "/></g></g></g><g fill="#b8433a" fill-opacity="1"><g transform="translate(802.816238, 513.718034)"><g><path d="M 35.15625 -264.984375 L 108.15625 -264.984375 L 108.15625 -227.140625 L 110.859375 -227.140625 C 116.628906 -235.066406 123.300781 -242.273438 130.875 -248.765625 C 137.363281 -254.171875 145.472656 -259.125 155.203125 -263.625 C 164.941406 -268.132812 176.300781 -270.390625 189.28125 -270.390625 L 194.6875 -270.390625 L 194.6875 -191.984375 C 192.882812 -192.347656 190.898438 -192.707031 188.734375 -193.0625 C 186.578125 -193.425781 183.960938 -193.785156 180.890625 -194.140625 C 177.828125 -194.503906 174.3125 -194.6875 170.34375 -194.6875 C 152.6875 -194.6875 137.90625 -188.375 126 -175.75 C 114.101562 -163.132812 108.15625 -146.015625 108.15625 -124.390625 L 108.15625 0 L 35.15625 0 Z M 35.15625 -264.984375 "/></g></g></g><g fill="#b8433a" fill-opacity="1"><g transform="translate(1002.367615, 513.718034)"><g><path d="M 146.015625 5.40625 C 118.972656 5.40625 97.335938 -2.972656 81.109375 -19.734375 C 64.890625 -36.503906 56.78125 -60.570312 56.78125 -91.9375 L 56.78125 -191.984375 L 10.8125 -191.984375 L 10.8125 -259.578125 L 35.15625 -259.578125 C 54.976562 -259.578125 64.890625 -270.394531 64.890625 -292.03125 L 64.890625 -340.703125 L 129.796875 -340.703125 L 129.796875 -259.578125 L 189.28125 -259.578125 L 189.28125 -191.984375 L 129.796875 -191.984375 L 129.796875 -102.75 C 129.796875 -90.488281 132.945312 -81.113281 139.25 -74.625 C 145.5625 -68.132812 154.125 -64.890625 164.9375 -64.890625 C 172.875 -64.890625 179.90625 -65.789062 186.03125 -67.59375 C 189.28125 -68.320312 192.164062 -69.222656 194.6875 -70.296875 L 194.6875 -2.703125 C 190.363281 -1.265625 185.675781 0.175781 180.625 1.625 C 176.300781 2.707031 171.164062 3.609375 165.21875 4.328125 C 159.269531 5.046875 152.867188 5.40625 146.015625 5.40625 Z M 146.015625 5.40625 "/></g></g></g></g></g></g><g clip-path="url(#90d4691361)"><g transform="matrix(1, 0, 0, 1, 1064, 1009)"><g clip-path="url(#327fd62c80)"><g fill="#b8433a" fill-opacity="1"><g transform="translate(0.556208, 131.985469)"><g><path d="M 39.640625 1.390625 C 35.097656 1.390625 30.804688 0.488281 26.765625 -1.3125 C 22.734375 -3.125 19.1875 -5.582031 16.125 -8.6875 C 13.070312 -11.800781 10.664062 -15.46875 8.90625 -19.6875 C 7.144531 -23.90625 6.265625 -28.46875 6.265625 -33.375 C 6.265625 -38.195312 7.144531 -42.738281 8.90625 -47 C 10.664062 -51.269531 13.050781 -54.957031 16.0625 -58.0625 C 19.070312 -61.175781 22.546875 -63.632812 26.484375 -65.4375 C 30.429688 -67.25 34.585938 -68.15625 38.953125 -68.15625 C 43.492188 -68.15625 47.710938 -67.320312 51.609375 -65.65625 C 55.503906 -63.988281 58.882812 -61.691406 61.75 -58.765625 C 64.625 -55.847656 66.875 -52.320312 68.5 -48.1875 C 70.125 -44.0625 70.9375 -39.585938 70.9375 -34.765625 C 70.9375 -34.023438 70.890625 -33.351562 70.796875 -32.75 C 70.703125 -32.15625 70.609375 -31.625 70.515625 -31.15625 C 70.421875 -30.601562 70.332031 -30.140625 70.25 -29.765625 L 16 -29.90625 C 16.1875 -26.9375 16.925781 -24.109375 18.21875 -21.421875 C 19.519531 -18.734375 21.234375 -16.367188 23.359375 -14.328125 C 25.492188 -12.285156 27.953125 -10.660156 30.734375 -9.453125 C 33.515625 -8.253906 36.484375 -7.65625 39.640625 -7.65625 C 43.160156 -7.65625 46.242188 -8.234375 48.890625 -9.390625 C 51.535156 -10.546875 53.785156 -11.820312 55.640625 -13.21875 C 57.773438 -14.882812 59.628906 -16.738281 61.203125 -18.78125 L 67.453125 -12.515625 C 65.515625 -9.921875 63.148438 -7.601562 60.359375 -5.5625 C 57.953125 -3.800781 55.03125 -2.203125 51.59375 -0.765625 C 48.164062 0.667969 44.179688 1.390625 39.640625 1.390625 Z M 61.203125 -38.25 C 60.828125 -41.21875 60.015625 -43.976562 58.765625 -46.53125 C 57.515625 -49.082031 55.914062 -51.285156 53.96875 -53.140625 C 52.019531 -54.992188 49.769531 -56.453125 47.21875 -57.515625 C 44.664062 -58.578125 41.910156 -59.109375 38.953125 -59.109375 C 35.984375 -59.109375 33.175781 -58.550781 30.53125 -57.4375 C 27.882812 -56.332031 25.539062 -54.804688 23.5 -52.859375 C 21.46875 -50.910156 19.800781 -48.679688 18.5 -46.171875 C 17.195312 -43.671875 16.363281 -41.03125 16 -38.25 Z M 61.203125 -38.25 "/></g></g></g><g fill="#b8433a" fill-opacity="1"><g transform="translate(69.688622, 131.985469)"><g><path d="M 11.125 -66.765625 L 20.859375 -66.765625 L 20.859375 -57.03125 C 22.347656 -59.070312 24.25 -60.925781 26.5625 -62.59375 C 28.414062 -63.976562 30.78125 -65.25 33.65625 -66.40625 C 36.53125 -67.570312 39.914062 -68.15625 43.8125 -68.15625 C 48.351562 -68.15625 52.59375 -67.296875 56.53125 -65.578125 C 60.476562 -63.867188 63.9375 -61.457031 66.90625 -58.34375 C 69.875 -55.238281 72.210938 -51.550781 73.921875 -47.28125 C 75.640625 -43.019531 76.5 -38.382812 76.5 -33.375 C 76.5 -28.375 75.640625 -23.738281 73.921875 -19.46875 C 72.210938 -15.207031 69.875 -11.519531 66.90625 -8.40625 C 63.9375 -5.300781 60.476562 -2.890625 56.53125 -1.171875 C 52.59375 0.535156 48.351562 1.390625 43.8125 1.390625 C 39.914062 1.390625 36.53125 0.808594 33.65625 -0.34375 C 30.78125 -1.507812 28.414062 -2.785156 26.5625 -4.171875 C 24.25 -5.835938 22.347656 -7.691406 20.859375 -9.734375 L 20.859375 29.203125 L 11.125 29.203125 Z M 43.8125 -7.65625 C 46.96875 -7.65625 49.9375 -8.28125 52.71875 -9.53125 C 55.5 -10.78125 57.929688 -12.539062 60.015625 -14.8125 C 62.109375 -17.082031 63.753906 -19.789062 64.953125 -22.9375 C 66.160156 -26.09375 66.765625 -29.570312 66.765625 -33.375 C 66.765625 -37.175781 66.160156 -40.65625 64.953125 -43.8125 C 63.753906 -46.96875 62.109375 -49.679688 60.015625 -51.953125 C 57.929688 -54.222656 55.5 -55.984375 52.71875 -57.234375 C 49.9375 -58.484375 46.96875 -59.109375 43.8125 -59.109375 C 40.84375 -59.109375 37.988281 -58.457031 35.25 -57.15625 C 32.519531 -55.863281 30.085938 -54.054688 27.953125 -51.734375 C 25.828125 -49.421875 24.113281 -46.6875 22.8125 -43.53125 C 21.507812 -40.382812 20.859375 -37 20.859375 -33.375 C 20.859375 -29.757812 21.507812 -26.375 22.8125 -23.21875 C 24.113281 -20.070312 25.828125 -17.335938 27.953125 -15.015625 C 30.085938 -12.703125 32.519531 -10.894531 35.25 -9.59375 C 37.988281 -8.300781 40.84375 -7.65625 43.8125 -7.65625 Z M 43.8125 -7.65625 "/></g></g></g><g fill="#b8433a" fill-opacity="1"><g transform="translate(144.385031, 131.985469)"><g><path d="M 11.125 -66.765625 L 20.859375 -66.765625 L 20.859375 0 L 11.125 0 Z M 16 -82.765625 C 14.238281 -82.765625 12.753906 -83.363281 11.546875 -84.5625 C 10.335938 -85.769531 9.734375 -87.253906 9.734375 -89.015625 C 9.734375 -90.773438 10.335938 -92.257812 11.546875 -93.46875 C 12.753906 -94.675781 14.238281 -95.28125 16 -95.28125 C 17.757812 -95.28125 19.238281 -94.675781 20.4375 -93.46875 C 21.644531 -92.257812 22.25 -90.773438 22.25 -89.015625 C 22.25 -87.253906 21.644531 -85.769531 20.4375 -84.5625 C 19.238281 -83.363281 17.757812 -82.765625 16 -82.765625 Z M 16 -82.765625 "/></g></g></g><g fill="#b8433a" fill-opacity="1"><g transform="translate(168.310026, 131.985469)"><g><path d="M 39.640625 1.390625 C 35.097656 1.390625 30.804688 0.488281 26.765625 -1.3125 C 22.734375 -3.125 19.1875 -5.582031 16.125 -8.6875 C 13.070312 -11.800781 10.664062 -15.46875 8.90625 -19.6875 C 7.144531 -23.90625 6.265625 -28.46875 6.265625 -33.375 C 6.265625 -38.195312 7.144531 -42.738281 8.90625 -47 C 10.664062 -51.269531 13.070312 -54.957031 16.125 -58.0625 C 19.1875 -61.175781 22.734375 -63.632812 26.765625 -65.4375 C 30.804688 -67.25 35.097656 -68.15625 39.640625 -68.15625 C 43.992188 -68.15625 47.835938 -67.457031 51.171875 -66.0625 C 54.515625 -64.675781 57.347656 -63.148438 59.671875 -61.484375 C 62.359375 -59.535156 64.722656 -57.351562 66.765625 -54.9375 L 59.8125 -47.984375 C 58.320312 -50.023438 56.601562 -51.878906 54.65625 -53.546875 C 52.988281 -54.941406 50.878906 -56.21875 48.328125 -57.375 C 45.785156 -58.53125 42.890625 -59.109375 39.640625 -59.109375 C 36.484375 -59.109375 33.488281 -58.457031 30.65625 -57.15625 C 27.832031 -55.863281 25.332031 -54.054688 23.15625 -51.734375 C 20.976562 -49.421875 19.238281 -46.6875 17.9375 -43.53125 C 16.644531 -40.382812 16 -37 16 -33.375 C 16 -29.757812 16.644531 -26.375 17.9375 -23.21875 C 19.238281 -20.070312 20.976562 -17.335938 23.15625 -15.015625 C 25.332031 -12.703125 27.832031 -10.894531 30.65625 -9.59375 C 33.488281 -8.300781 36.484375 -7.65625 39.640625 -7.65625 C 42.890625 -7.65625 45.8125 -8.234375 48.40625 -9.390625 C 51 -10.546875 53.222656 -11.820312 55.078125 -13.21875 C 57.210938 -14.882812 59.019531 -16.738281 60.5 -18.78125 L 67.453125 -12.515625 C 65.328125 -9.921875 62.875 -7.601562 60.09375 -5.5625 C 57.675781 -3.800781 54.75 -2.203125 51.3125 -0.765625 C 47.882812 0.667969 43.992188 1.390625 39.640625 1.390625 Z M 39.640625 1.390625 "/></g></g></g><g fill="#b8433a" fill-opacity="1"><g transform="translate(231.878454, 131.985469)"><g><path d="M 35.046875 1.390625 C 29.296875 1.390625 24.796875 -0.273438 21.546875 -3.609375 C 18.304688 -6.953125 16.6875 -11.773438 16.6875 -18.078125 L 16.6875 -57.71875 L 4.171875 -57.71875 L 4.171875 -66.765625 L 11.828125 -66.765625 C 15.535156 -66.765625 17.390625 -69.082031 17.390625 -73.71875 L 17.390625 -89.015625 L 26.421875 -89.015625 L 26.421875 -66.765625 L 41.03125 -66.765625 L 41.03125 -57.71875 L 26.421875 -57.71875 L 26.421875 -18.078125 C 26.421875 -14.554688 27.234375 -11.9375 28.859375 -10.21875 C 30.484375 -8.507812 32.6875 -7.65625 35.46875 -7.65625 C 36.675781 -7.65625 37.832031 -7.742188 38.9375 -7.921875 C 40.050781 -8.109375 41.023438 -8.34375 41.859375 -8.625 C 42.878906 -9 43.765625 -9.367188 44.515625 -9.734375 L 44.515625 -0.703125 C 43.679688 -0.328125 42.753906 0.046875 41.734375 0.421875 C 40.890625 0.691406 39.890625 0.921875 38.734375 1.109375 C 37.578125 1.296875 36.347656 1.390625 35.046875 1.390625 Z M 35.046875 1.390625 "/></g></g></g><g fill="#b8433a" fill-opacity="1"><g transform="translate(272.495417, 131.985469)"><g><path d="M 40.34375 1.390625 C 35.613281 1.390625 31.179688 0.488281 27.046875 -1.3125 C 22.921875 -3.125 19.328125 -5.582031 16.265625 -8.6875 C 13.210938 -11.800781 10.78125 -15.46875 8.96875 -19.6875 C 7.164062 -23.90625 6.265625 -28.46875 6.265625 -33.375 C 6.265625 -38.195312 7.164062 -42.738281 8.96875 -47 C 10.78125 -51.269531 13.210938 -54.957031 16.265625 -58.0625 C 19.328125 -61.175781 22.921875 -63.632812 27.046875 -65.4375 C 31.179688 -67.25 35.613281 -68.15625 40.34375 -68.15625 C 45.070312 -68.15625 49.5 -67.25 53.625 -65.4375 C 57.75 -63.632812 61.335938 -61.175781 64.390625 -58.0625 C 67.453125 -54.957031 69.890625 -51.269531 71.703125 -47 C 73.515625 -42.738281 74.421875 -38.195312 74.421875 -33.375 C 74.421875 -28.46875 73.515625 -23.90625 71.703125 -19.6875 C 69.890625 -15.46875 67.453125 -11.800781 64.390625 -8.6875 C 61.335938 -5.582031 57.75 -3.125 53.625 -1.3125 C 49.5 0.488281 45.070312 1.390625 40.34375 1.390625 Z M 40.34375 -7.65625 C 43.675781 -7.65625 46.800781 -8.300781 49.71875 -9.59375 C 52.644531 -10.894531 55.21875 -12.703125 57.4375 -15.015625 C 59.664062 -17.335938 61.425781 -20.070312 62.71875 -23.21875 C 64.019531 -26.375 64.671875 -29.757812 64.671875 -33.375 C 64.671875 -37 64.019531 -40.382812 62.71875 -43.53125 C 61.425781 -46.6875 59.664062 -49.421875 57.4375 -51.734375 C 55.21875 -54.054688 52.644531 -55.863281 49.71875 -57.15625 C 46.800781 -58.457031 43.675781 -59.109375 40.34375 -59.109375 C 37 -59.109375 33.863281 -58.457031 30.9375 -57.15625 C 28.019531 -55.863281 25.445312 -54.054688 23.21875 -51.734375 C 21 -49.421875 19.238281 -46.6875 17.9375 -43.53125 C 16.644531 -40.382812 16 -37 16 -33.375 C 16 -29.757812 16.644531 -26.375 17.9375 -23.21875 C 19.238281 -20.070312 21 -17.363281 23.21875 -15.09375 C 25.445312 -12.820312 28.019531 -11.015625 30.9375 -9.671875 C 33.863281 -8.328125 37 -7.65625 40.34375 -7.65625 Z M 40.34375 -7.65625 "/></g></g></g><g fill="#b8433a" fill-opacity="1"><g transform="translate(345.10531, 131.985469)"><g><path d="M 40.34375 1.390625 C 35.613281 1.390625 31.179688 0.488281 27.046875 -1.3125 C 22.921875 -3.125 19.328125 -5.582031 16.265625 -8.6875 C 13.210938 -11.800781 10.78125 -15.46875 8.96875 -19.6875 C 7.164062 -23.90625 6.265625 -28.46875 6.265625 -33.375 C 6.265625 -38.195312 7.164062 -42.738281 8.96875 -47 C 10.78125 -51.269531 13.210938 -54.957031 16.265625 -58.0625 C 19.328125 -61.175781 22.921875 -63.632812 27.046875 -65.4375 C 31.179688 -67.25 35.613281 -68.15625 40.34375 -68.15625 C 45.070312 -68.15625 49.5 -67.25 53.625 -65.4375 C 57.75 -63.632812 61.335938 -61.175781 64.390625 -58.0625 C 67.453125 -54.957031 69.890625 -51.269531 71.703125 -47 C 73.515625 -42.738281 74.421875 -38.195312 74.421875 -33.375 C 74.421875 -28.46875 73.515625 -23.90625 71.703125 -19.6875 C 69.890625 -15.46875 67.453125 -11.800781 64.390625 -8.6875 C 61.335938 -5.582031 57.75 -3.125 53.625 -1.3125 C 49.5 0.488281 45.070312 1.390625 40.34375 1.390625 Z M 40.34375 -7.65625 C 43.675781 -7.65625 46.800781 -8.300781 49.71875 -9.59375 C 52.644531 -10.894531 55.21875 -12.703125 57.4375 -15.015625 C 59.664062 -17.335938 61.425781 -20.070312 62.71875 -23.21875 C 64.019531 -26.375 64.671875 -29.757812 64.671875 -33.375 C 64.671875 -37 64.019531 -40.382812 62.71875 -43.53125 C 61.425781 -46.6875 59.664062 -49.421875 57.4375 -51.734375 C 55.21875 -54.054688 52.644531 -55.863281 49.71875 -57.15625 C 46.800781 -58.457031 43.675781 -59.109375 40.34375 -59.109375 C 37 -59.109375 33.863281 -58.457031 30.9375 -57.15625 C 28.019531 -55.863281 25.445312 -54.054688 23.21875 -51.734375 C 21 -49.421875 19.238281 -46.6875 17.9375 -43.53125 C 16.644531 -40.382812 16 -37 16 -33.375 C 16 -29.757812 16.644531 -26.375 17.9375 -23.21875 C 19.238281 -20.070312 21 -17.363281 23.21875 -15.09375 C 25.445312 -12.820312 28.019531 -11.015625 30.9375 -9.671875 C 33.863281 -8.328125 37 -7.65625 40.34375 -7.65625 Z M 40.34375 -7.65625 "/></g></g></g><g fill="#b8433a" fill-opacity="1"><g transform="translate(417.715202, 131.985469)"><g><path d="M 11.828125 -97.359375 L 21.5625 -97.359375 L 21.5625 0 L 11.828125 0 Z M 11.828125 -97.359375 "/></g></g></g><g fill="#b8433a" fill-opacity="1"><g transform="translate(443.031189, 131.985469)"><g><path d="M 29.203125 1.390625 C 25.035156 1.390625 21.421875 0.789062 18.359375 -0.40625 C 15.296875 -1.613281 12.742188 -2.960938 10.703125 -4.453125 C 8.296875 -6.117188 6.351562 -8.113281 4.875 -10.4375 L 11.828125 -17.390625 C 13.117188 -15.535156 14.601562 -13.910156 16.28125 -12.515625 C 17.757812 -11.222656 19.585938 -10.085938 21.765625 -9.109375 C 23.941406 -8.140625 26.421875 -7.65625 29.203125 -7.65625 C 34.117188 -7.65625 37.78125 -8.71875 40.1875 -10.84375 C 42.601562 -12.976562 43.8125 -15.625 43.8125 -18.78125 C 43.8125 -21.28125 42.90625 -23.269531 41.09375 -24.75 C 39.289062 -26.238281 37.066406 -27.46875 34.421875 -28.4375 C 31.785156 -29.414062 28.890625 -30.34375 25.734375 -31.21875 C 22.578125 -32.101562 19.675781 -33.238281 17.03125 -34.625 C 14.394531 -36.019531 12.171875 -37.875 10.359375 -40.1875 C 8.554688 -42.507812 7.65625 -45.570312 7.65625 -49.375 C 7.65625 -51.789062 8.1875 -54.132812 9.25 -56.40625 C 10.3125 -58.675781 11.816406 -60.664062 13.765625 -62.375 C 15.710938 -64.09375 18.050781 -65.484375 20.78125 -66.546875 C 23.519531 -67.617188 26.5625 -68.15625 29.90625 -68.15625 C 33.425781 -68.15625 36.507812 -67.664062 39.15625 -66.6875 C 41.800781 -65.71875 44.050781 -64.675781 45.90625 -63.5625 C 48.03125 -62.269531 49.882812 -60.785156 51.46875 -59.109375 L 44.515625 -52.15625 C 43.492188 -53.457031 42.285156 -54.617188 40.890625 -55.640625 C 39.597656 -56.472656 38.046875 -57.257812 36.234375 -58 C 34.421875 -58.738281 32.3125 -59.109375 29.90625 -59.109375 C 26.101562 -59.109375 23.066406 -58.085938 20.796875 -56.046875 C 18.523438 -54.015625 17.390625 -51.789062 17.390625 -49.375 C 17.390625 -46.96875 18.289062 -45.066406 20.09375 -43.671875 C 21.90625 -42.285156 24.128906 -41.128906 26.765625 -40.203125 C 29.410156 -39.273438 32.3125 -38.367188 35.46875 -37.484375 C 38.625 -36.609375 41.519531 -35.453125 44.15625 -34.015625 C 46.800781 -32.578125 49.023438 -30.648438 50.828125 -28.234375 C 52.640625 -25.828125 53.546875 -22.675781 53.546875 -18.78125 C 53.546875 -16 52.988281 -13.378906 51.875 -10.921875 C 50.769531 -8.460938 49.171875 -6.328125 47.078125 -4.515625 C 44.992188 -2.710938 42.441406 -1.273438 39.421875 -0.203125 C 36.410156 0.855469 33.003906 1.390625 29.203125 1.390625 Z M 29.203125 1.390625 "/></g></g></g><g fill="#b8433a" fill-opacity="1"><g transform="translate(494.776169, 131.985469)"><g><path d="M 40.34375 1.390625 C 35.613281 1.390625 31.179688 0.488281 27.046875 -1.3125 C 22.921875 -3.125 19.328125 -5.582031 16.265625 -8.6875 C 13.210938 -11.800781 10.78125 -15.46875 8.96875 -19.6875 C 7.164062 -23.90625 6.265625 -28.46875 6.265625 -33.375 C 6.265625 -38.195312 7.164062 -42.738281 8.96875 -47 C 10.78125 -51.269531 13.210938 -54.957031 16.265625 -58.0625 C 19.328125 -61.175781 22.921875 -63.632812 27.046875 -65.4375 C 31.179688 -67.25 35.613281 -68.15625 40.34375 -68.15625 C 45.070312 -68.15625 49.5 -67.25 53.625 -65.4375 C 57.75 -63.632812 61.335938 -61.175781 64.390625 -58.0625 C 67.453125 -54.957031 69.890625 -51.269531 71.703125 -47 C 73.515625 -42.738281 74.421875 -38.195312 74.421875 -33.375 C 74.421875 -28.46875 73.515625 -23.90625 71.703125 -19.6875 C 69.890625 -15.46875 67.453125 -11.800781 64.390625 -8.6875 C 61.335938 -5.582031 57.75 -3.125 53.625 -1.3125 C 49.5 0.488281 45.070312 1.390625 40.34375 1.390625 Z M 40.34375 -7.65625 C 43.675781 -7.65625 46.800781 -8.300781 49.71875 -9.59375 C 52.644531 -10.894531 55.21875 -12.703125 57.4375 -15.015625 C 59.664062 -17.335938 61.425781 -20.070312 62.71875 -23.21875 C 64.019531 -26.375 64.671875 -29.757812 64.671875 -33.375 C 64.671875 -37 64.019531 -40.382812 62.71875 -43.53125 C 61.425781 -46.6875 59.664062 -49.421875 57.4375 -51.734375 C 55.21875 -54.054688 52.644531 -55.863281 49.71875 -57.15625 C 46.800781 -58.457031 43.675781 -59.109375 40.34375 -59.109375 C 37 -59.109375 33.863281 -58.457031 30.9375 -57.15625 C 28.019531 -55.863281 25.445312 -54.054688 23.21875 -51.734375 C 21 -49.421875 19.238281 -46.6875 17.9375 -43.53125 C 16.644531 -40.382812 16 -37 16 -33.375 C 16 -29.757812 16.644531 -26.375 17.9375 -23.21875 C 19.238281 -20.070312 21 -17.363281 23.21875 -15.09375 C 25.445312 -12.820312 28.019531 -11.015625 30.9375 -9.671875 C 33.863281 -8.328125 37 -7.65625 40.34375 -7.65625 Z M 40.34375 -7.65625 "/></g></g></g><g fill="#b8433a" fill-opacity="1"><g transform="translate(567.386062, 131.985469)"><g><path d="M 11.125 -66.765625 L 20.859375 -66.765625 L 20.859375 -57.03125 C 22.253906 -59.070312 24.019531 -60.925781 26.15625 -62.59375 C 28.007812 -63.976562 30.253906 -65.25 32.890625 -66.40625 C 35.535156 -67.570312 38.710938 -68.15625 42.421875 -68.15625 C 46.410156 -68.15625 50.070312 -67.484375 53.40625 -66.140625 C 56.75 -64.796875 59.601562 -62.894531 61.96875 -60.4375 C 64.332031 -57.976562 66.1875 -54.984375 67.53125 -51.453125 C 68.875 -47.929688 69.546875 -43.992188 69.546875 -39.640625 L 69.546875 0 L 59.8125 0 L 59.8125 -39.640625 C 59.8125 -45.578125 58.117188 -50.304688 54.734375 -53.828125 C 51.347656 -57.347656 47.015625 -59.109375 41.734375 -59.109375 C 38.765625 -59.109375 36.003906 -58.578125 33.453125 -57.515625 C 30.898438 -56.453125 28.695312 -54.945312 26.84375 -53 C 24.988281 -51.050781 23.523438 -48.707031 22.453125 -45.96875 C 21.390625 -43.226562 20.859375 -40.191406 20.859375 -36.859375 L 20.859375 0 L 11.125 0 Z M 11.125 -66.765625 "/></g></g></g><g fill="#b8433a" fill-opacity="1"><g transform="translate(639.995954, 131.985469)"><g><path d="M 11.828125 -97.359375 L 21.5625 -97.359375 L 21.5625 0 L 11.828125 0 Z M 11.828125 -97.359375 "/></g></g></g><g fill="#b8433a" fill-opacity="1"><g transform="translate(665.311941, 131.985469)"><g><path d="M 11.125 -66.765625 L 20.859375 -66.765625 L 20.859375 0 L 11.125 0 Z M 16 -82.765625 C 14.238281 -82.765625 12.753906 -83.363281 11.546875 -84.5625 C 10.335938 -85.769531 9.734375 -87.253906 9.734375 -89.015625 C 9.734375 -90.773438 10.335938 -92.257812 11.546875 -93.46875 C 12.753906 -94.675781 14.238281 -95.28125 16 -95.28125 C 17.757812 -95.28125 19.238281 -94.675781 20.4375 -93.46875 C 21.644531 -92.257812 22.25 -90.773438 22.25 -89.015625 C 22.25 -87.253906 21.644531 -85.769531 20.4375 -84.5625 C 19.238281 -83.363281 17.757812 -82.765625 16 -82.765625 Z M 16 -82.765625 "/></g></g></g><g fill="#b8433a" fill-opacity="1"><g transform="translate(689.236894, 131.985469)"><g><path d="M 11.125 -66.765625 L 20.859375 -66.765625 L 20.859375 -57.03125 C 22.253906 -59.070312 24.019531 -60.925781 26.15625 -62.59375 C 28.007812 -63.976562 30.253906 -65.25 32.890625 -66.40625 C 35.535156 -67.570312 38.710938 -68.15625 42.421875 -68.15625 C 46.410156 -68.15625 50.070312 -67.484375 53.40625 -66.140625 C 56.75 -64.796875 59.601562 -62.894531 61.96875 -60.4375 C 64.332031 -57.976562 66.1875 -54.984375 67.53125 -51.453125 C 68.875 -47.929688 69.546875 -43.992188 69.546875 -39.640625 L 69.546875 0 L 59.8125 0 L 59.8125 -39.640625 C 59.8125 -45.578125 58.117188 -50.304688 54.734375 -53.828125 C 51.347656 -57.347656 47.015625 -59.109375 41.734375 -59.109375 C 38.765625 -59.109375 36.003906 -58.578125 33.453125 -57.515625 C 30.898438 -56.453125 28.695312 -54.945312 26.84375 -53 C 24.988281 -51.050781 23.523438 -48.707031 22.453125 -45.96875 C 21.390625 -43.226562 20.859375 -40.191406 20.859375 -36.859375 L 20.859375 0 L 11.125 0 Z M 11.125 -66.765625 "/></g></g></g><g fill="#b8433a" fill-opacity="1"><g transform="translate(761.846844, 131.985469)"><g><path d="M 39.640625 1.390625 C 35.097656 1.390625 30.804688 0.488281 26.765625 -1.3125 C 22.734375 -3.125 19.1875 -5.582031 16.125 -8.6875 C 13.070312 -11.800781 10.664062 -15.46875 8.90625 -19.6875 C 7.144531 -23.90625 6.265625 -28.46875 6.265625 -33.375 C 6.265625 -38.195312 7.144531 -42.738281 8.90625 -47 C 10.664062 -51.269531 13.050781 -54.957031 16.0625 -58.0625 C 19.070312 -61.175781 22.546875 -63.632812 26.484375 -65.4375 C 30.429688 -67.25 34.585938 -68.15625 38.953125 -68.15625 C 43.492188 -68.15625 47.710938 -67.320312 51.609375 -65.65625 C 55.503906 -63.988281 58.882812 -61.691406 61.75 -58.765625 C 64.625 -55.847656 66.875 -52.320312 68.5 -48.1875 C 70.125 -44.0625 70.9375 -39.585938 70.9375 -34.765625 C 70.9375 -34.023438 70.890625 -33.351562 70.796875 -32.75 C 70.703125 -32.15625 70.609375 -31.625 70.515625 -31.15625 C 70.421875 -30.601562 70.332031 -30.140625 70.25 -29.765625 L 16 -29.90625 C 16.1875 -26.9375 16.925781 -24.109375 18.21875 -21.421875 C 19.519531 -18.734375 21.234375 -16.367188 23.359375 -14.328125 C 25.492188 -12.285156 27.953125 -10.660156 30.734375 -9.453125 C 33.515625 -8.253906 36.484375 -7.65625 39.640625 -7.65625 C 43.160156 -7.65625 46.242188 -8.234375 48.890625 -9.390625 C 51.535156 -10.546875 53.785156 -11.820312 55.640625 -13.21875 C 57.773438 -14.882812 59.628906 -16.738281 61.203125 -18.78125 L 67.453125 -12.515625 C 65.515625 -9.921875 63.148438 -7.601562 60.359375 -5.5625 C 57.953125 -3.800781 55.03125 -2.203125 51.59375 -0.765625 C 48.164062 0.667969 44.179688 1.390625 39.640625 1.390625 Z M 61.203125 -38.25 C 60.828125 -41.21875 60.015625 -43.976562 58.765625 -46.53125 C 57.515625 -49.082031 55.914062 -51.285156 53.96875 -53.140625 C 52.019531 -54.992188 49.769531 -56.453125 47.21875 -57.515625 C 44.664062 -58.578125 41.910156 -59.109375 38.953125 -59.109375 C 35.984375 -59.109375 33.175781 -58.550781 30.53125 -57.4375 C 27.882812 -56.332031 25.539062 -54.804688 23.5 -52.859375 C 21.46875 -50.910156 19.800781 -48.679688 18.5 -46.171875 C 17.195312 -43.671875 16.363281 -41.03125 16 -38.25 Z M 61.203125 -38.25 "/></g></g></g><g fill="#b8433a" fill-opacity="1"><g transform="translate(830.979208, 131.985469)"><g><path d="M 14.609375 1.390625 C 12.472656 1.390625 10.78125 0.761719 9.53125 -0.484375 C 8.28125 -1.734375 7.65625 -3.425781 7.65625 -5.5625 C 7.65625 -7.695312 8.28125 -9.390625 9.53125 -10.640625 C 10.78125 -11.890625 12.472656 -12.515625 14.609375 -12.515625 C 16.734375 -12.515625 18.421875 -11.890625 19.671875 -10.640625 C 20.929688 -9.390625 21.5625 -7.695312 21.5625 -5.5625 C 21.5625 -3.425781 20.929688 -1.734375 19.671875 -0.484375 C 18.421875 0.761719 16.734375 1.390625 14.609375 1.390625 Z M 14.609375 1.390625 "/></g></g></g><g fill="#b8433a" fill-opacity="1"><g transform="translate(852.122206, 131.985469)"><g><path d="M 39.640625 1.390625 C 35.097656 1.390625 30.804688 0.488281 26.765625 -1.3125 C 22.734375 -3.125 19.1875 -5.582031 16.125 -8.6875 C 13.070312 -11.800781 10.664062 -15.46875 8.90625 -19.6875 C 7.144531 -23.90625 6.265625 -28.46875 6.265625 -33.375 C 6.265625 -38.195312 7.144531 -42.738281 8.90625 -47 C 10.664062 -51.269531 13.070312 -54.957031 16.125 -58.0625 C 19.1875 -61.175781 22.734375 -63.632812 26.765625 -65.4375 C 30.804688 -67.25 35.097656 -68.15625 39.640625 -68.15625 C 43.992188 -68.15625 47.835938 -67.457031 51.171875 -66.0625 C 54.515625 -64.675781 57.347656 -63.148438 59.671875 -61.484375 C 62.359375 -59.535156 64.722656 -57.351562 66.765625 -54.9375 L 59.8125 -47.984375 C 58.320312 -50.023438 56.601562 -51.878906 54.65625 -53.546875 C 52.988281 -54.941406 50.878906 -56.21875 48.328125 -57.375 C 45.785156 -58.53125 42.890625 -59.109375 39.640625 -59.109375 C 36.484375 -59.109375 33.488281 -58.457031 30.65625 -57.15625 C 27.832031 -55.863281 25.332031 -54.054688 23.15625 -51.734375 C 20.976562 -49.421875 19.238281 -46.6875 17.9375 -43.53125 C 16.644531 -40.382812 16 -37 16 -33.375 C 16 -29.757812 16.644531 -26.375 17.9375 -23.21875 C 19.238281 -20.070312 20.976562 -17.335938 23.15625 -15.015625 C 25.332031 -12.703125 27.832031 -10.894531 30.65625 -9.59375 C 33.488281 -8.300781 36.484375 -7.65625 39.640625 -7.65625 C 42.890625 -7.65625 45.8125 -8.234375 48.40625 -9.390625 C 51 -10.546875 53.222656 -11.820312 55.078125 -13.21875 C 57.210938 -14.882812 59.019531 -16.738281 60.5 -18.78125 L 67.453125 -12.515625 C 65.328125 -9.921875 62.875 -7.601562 60.09375 -5.5625 C 57.675781 -3.800781 54.75 -2.203125 51.3125 -0.765625 C 47.882812 0.667969 43.992188 1.390625 39.640625 1.390625 Z M 39.640625 1.390625 "/></g></g></g><g fill="#b8433a" fill-opacity="1"><g transform="translate(914.299628, 131.985469)"><g><path d="M 40.34375 1.390625 C 35.613281 1.390625 31.179688 0.488281 27.046875 -1.3125 C 22.921875 -3.125 19.328125 -5.582031 16.265625 -8.6875 C 13.210938 -11.800781 10.78125 -15.46875 8.96875 -19.6875 C 7.164062 -23.90625 6.265625 -28.46875 6.265625 -33.375 C 6.265625 -38.195312 7.164062 -42.738281 8.96875 -47 C 10.78125 -51.269531 13.210938 -54.957031 16.265625 -58.0625 C 19.328125 -61.175781 22.921875 -63.632812 27.046875 -65.4375 C 31.179688 -67.25 35.613281 -68.15625 40.34375 -68.15625 C 45.070312 -68.15625 49.5 -67.25 53.625 -65.4375 C 57.75 -63.632812 61.335938 -61.175781 64.390625 -58.0625 C 67.453125 -54.957031 69.890625 -51.269531 71.703125 -47 C 73.515625 -42.738281 74.421875 -38.195312 74.421875 -33.375 C 74.421875 -28.46875 73.515625 -23.90625 71.703125 -19.6875 C 69.890625 -15.46875 67.453125 -11.800781 64.390625 -8.6875 C 61.335938 -5.582031 57.75 -3.125 53.625 -1.3125 C 49.5 0.488281 45.070312 1.390625 40.34375 1.390625 Z M 40.34375 -7.65625 C 43.675781 -7.65625 46.800781 -8.300781 49.71875 -9.59375 C 52.644531 -10.894531 55.21875 -12.703125 57.4375 -15.015625 C 59.664062 -17.335938 61.425781 -20.070312 62.71875 -23.21875 C 64.019531 -26.375 64.671875 -29.757812 64.671875 -33.375 C 64.671875 -37 64.019531 -40.382812 62.71875 -43.53125 C 61.425781 -46.6875 59.664062 -49.421875 57.4375 -51.734375 C 55.21875 -54.054688 52.644531 -55.863281 49.71875 -57.15625 C 46.800781 -58.457031 43.675781 -59.109375 40.34375 -59.109375 C 37 -59.109375 33.863281 -58.457031 30.9375 -57.15625 C 28.019531 -55.863281 25.445312 -54.054688 23.21875 -51.734375 C 21 -49.421875 19.238281 -46.6875 17.9375 -43.53125 C 16.644531 -40.382812 16 -37 16 -33.375 C 16 -29.757812 16.644531 -26.375 17.9375 -23.21875 C 19.238281 -20.070312 21 -17.363281 23.21875 -15.09375 C 25.445312 -12.820312 28.019531 -11.015625 30.9375 -9.671875 C 33.863281 -8.328125 37 -7.65625 40.34375 -7.65625 Z M 40.34375 -7.65625 "/></g></g></g><g fill="#b8433a" fill-opacity="1"><g transform="translate(986.909521, 131.985469)"><g><path d="M 11.125 -66.765625 L 20.859375 -66.765625 L 20.859375 -58.421875 C 22.066406 -60.179688 23.550781 -61.800781 25.3125 -63.28125 C 26.882812 -64.488281 28.832031 -65.601562 31.15625 -66.625 C 33.476562 -67.644531 36.304688 -68.15625 39.640625 -68.15625 C 43.628906 -68.15625 47.015625 -67.53125 49.796875 -66.28125 C 52.578125 -65.03125 54.800781 -63.660156 56.46875 -62.171875 C 58.414062 -60.503906 59.992188 -58.554688 61.203125 -56.328125 C 62.503906 -58.554688 64.21875 -60.503906 66.34375 -62.171875 C 68.195312 -63.660156 70.582031 -65.03125 73.5 -66.28125 C 76.425781 -67.53125 79.976562 -68.15625 84.15625 -68.15625 C 87.769531 -68.15625 91.148438 -67.550781 94.296875 -66.34375 C 97.453125 -65.144531 100.1875 -63.335938 102.5 -60.921875 C 104.820312 -58.515625 106.632812 -55.523438 107.9375 -51.953125 C 109.238281 -48.378906 109.890625 -44.273438 109.890625 -39.640625 L 109.890625 0 L 100.140625 0 L 100.140625 -39.640625 C 100.140625 -46.035156 98.585938 -50.878906 95.484375 -54.171875 C 92.378906 -57.460938 88.367188 -59.109375 83.453125 -59.109375 C 81.046875 -59.109375 78.75 -58.597656 76.5625 -57.578125 C 74.382812 -56.566406 72.460938 -55.109375 70.796875 -53.203125 C 69.128906 -51.304688 67.804688 -48.960938 66.828125 -46.171875 C 65.859375 -43.390625 65.375 -40.285156 65.375 -36.859375 L 65.375 0 L 55.640625 0 L 55.640625 -39.640625 C 55.640625 -45.941406 54.082031 -50.757812 50.96875 -54.09375 C 47.863281 -57.4375 43.859375 -59.109375 38.953125 -59.109375 C 36.535156 -59.109375 34.238281 -58.597656 32.0625 -57.578125 C 29.882812 -56.566406 27.957031 -55.109375 26.28125 -53.203125 C 24.613281 -51.304688 23.289062 -48.960938 22.3125 -46.171875 C 21.34375 -43.390625 20.859375 -40.285156 20.859375 -36.859375 L 20.859375 0 L 11.125 0 Z M 11.125 -66.765625 "/></g></g></g></g></g></g></g></g></svg>